<svg viewBox="0 0 17 17" fill="none" xmlns="http://www.w3.org/2000/svg">
<path d="M8.78491 13.6282C8.78491 14.5064 8.78634 15.3846 8.78407 16.2628C8.78335 16.5156 8.55941 16.6509 8.34288 16.5346C8.22505 16.4713 8.19598 16.3642 8.19622 16.2392C8.19729 15.7215 8.19753 15.2036 8.1949 14.6859C8.18892 13.5234 8.19095 12.3609 8.16846 11.1988C8.16117 10.8207 8.1114 10.4392 8.03998 10.0671C7.88183 9.24349 7.35188 8.77551 6.54164 8.63818C5.70269 8.49594 4.86218 8.55671 4.0279 8.70086C3.77106 8.74524 3.55955 8.88473 3.37162 9.06285C3.24661 9.18129 3.12566 9.30785 2.98546 9.40595C2.52513 9.72799 1.94864 9.64712 1.57444 9.22005C1.20097 8.79381 1.20049 8.19124 1.57325 7.76118C1.9246 7.35588 2.53087 7.27561 2.98067 7.57588C3.03965 7.61523 3.1021 7.65316 3.15078 7.70364C3.49304 8.05894 3.92203 8.21565 4.40197 8.25525C5.00478 8.30489 5.60962 8.33587 6.208 8.22809C7.16957 8.05487 7.85875 7.54465 8.12145 6.56861C8.26668 6.02885 8.20686 5.49591 7.91485 5.01249C7.68457 4.63111 7.43108 4.26314 7.17376 3.89899C6.85949 3.45433 6.57442 2.9946 6.37763 2.48546C6.21661 2.06904 5.95044 1.76602 5.53497 1.57581C5.10634 1.37962 4.93217 1.01583 5.03026 0.629674C5.13517 0.216598 5.50913 -0.0370135 5.95044 0.00557413C6.34103 0.043257 6.69764 0.403576 6.70613 0.796913C6.7096 0.960206 6.68866 1.13666 6.62753 1.28607C6.49463 1.61086 6.50982 1.92728 6.60134 2.25327C6.75518 2.80116 7.06561 3.26173 7.39495 3.71488C7.65406 4.07137 7.89619 4.44019 8.14932 4.8011C8.1772 4.84082 8.22792 4.86439 8.26811 4.89537C8.30747 4.84285 8.38248 4.78902 8.3808 4.73782C8.36477 4.24675 8.3503 3.75484 8.30544 3.2658C8.27625 2.94723 8.07061 2.71419 7.83733 2.50688C7.56745 2.26702 7.42988 1.97082 7.46744 1.60141C7.50883 1.19504 7.8158 0.831367 8.22158 0.718677C8.65356 0.59869 9.07584 0.750857 9.34728 1.12446C9.58725 1.45463 9.59419 1.92202 9.35781 2.26738C9.29811 2.35459 9.22945 2.44048 9.14894 2.50771C8.80608 2.79434 8.65631 3.16986 8.63394 3.60315C8.61611 3.94768 8.60834 4.2928 8.59996 4.63781C8.59853 4.69715 8.60582 4.76127 8.6276 4.81582C8.66839 4.91822 8.74543 4.92755 8.80835 4.83568C9.22957 4.22139 9.65676 3.61081 10.063 2.98671C10.2599 2.68417 10.3743 2.34131 10.4376 1.98159C10.4834 1.72116 10.4373 1.48202 10.348 1.23858C10.1652 0.74033 10.3876 0.224972 10.8459 0.0547411C11.2452 -0.0935977 11.6848 0.0682593 11.8783 0.4348C12.0693 0.796794 11.9634 1.21765 11.6163 1.47209C11.5756 1.50188 11.534 1.53538 11.4874 1.55177C11.0011 1.7226 10.7363 2.09237 10.5603 2.55329C10.3117 3.20467 9.888 3.75304 9.50794 4.32809C9.28555 4.66461 9.04617 5.00722 8.91327 5.38202C8.50426 6.53547 9.17657 7.7625 10.3932 8.1343C10.6427 8.2105 10.9077 8.25094 11.1685 8.27235C11.7718 8.322 12.3752 8.30848 12.9724 8.19388C13.2961 8.13179 13.5639 7.9691 13.8015 7.74276C14.1253 7.43424 14.5047 7.30767 14.9472 7.44046C15.3546 7.56284 15.692 7.96264 15.7251 8.36758C15.7653 8.85841 15.5592 9.22459 15.1363 9.46516C14.7454 9.68755 14.2976 9.64245 13.9417 9.35714C13.8786 9.30654 13.8131 9.25534 13.7618 9.19361C13.4563 8.82611 13.0542 8.65313 12.5893 8.63459C11.9718 8.61006 11.353 8.58721 10.7356 8.60205C10.2952 8.61257 9.87627 8.74201 9.52086 9.02505C9.1353 9.33202 8.9744 9.75299 8.90107 10.2232C8.7879 10.9487 8.78886 11.6794 8.78742 12.4102C8.78658 12.8163 8.7873 13.2224 8.7873 13.6285H8.78503L8.78491 13.6282Z" fill="white"/>
<path d="M4.47342 3.6586C4.32257 3.62307 4.16191 3.60955 4.02302 3.54735C3.7139 3.40906 3.5542 3.09109 3.6072 2.77539C3.65732 2.47691 3.92134 2.23251 4.24469 2.18526C4.53671 2.14255 4.85671 2.32929 4.99393 2.62573C5.02144 2.68519 5.04596 2.74799 5.059 2.81199C5.13114 3.16609 5.32685 3.44112 5.59398 3.67463C6.0189 4.04608 6.42671 4.43403 6.73368 4.91434C6.91515 5.19821 7.06911 5.49501 7.12151 5.83212C7.16757 6.1282 7.12474 6.40945 6.93812 6.65492C6.77112 6.87456 6.53785 6.97505 6.28076 6.89729C5.94832 6.79668 5.66647 6.85506 5.36573 7.01082C4.9243 7.23955 4.49914 7.15784 4.12327 6.83808C3.76869 6.53637 3.63316 6.05523 3.78927 5.62373C3.95555 5.16424 4.29267 4.90907 4.77836 4.86577C5.35149 4.81469 5.89891 5.31198 5.98026 5.9295C6.00083 6.08609 6.04928 6.24699 6.12202 6.3866C6.2042 6.54439 6.35745 6.62538 6.54431 6.58937C6.72458 6.55456 6.79301 6.41124 6.83345 6.25345C6.91025 5.95402 6.85366 5.6656 6.72327 5.39596C6.39644 4.7197 5.89784 4.19705 5.25364 3.81531C5.01749 3.67535 4.75515 3.61924 4.47318 3.65872L4.47342 3.6586Z" fill="white"/>
<path d="M9.84369 6.03193C9.84512 5.63656 10.0024 5.29263 10.2054 4.96665C10.4983 4.49651 10.8816 4.10544 11.3033 3.75182C11.615 3.49032 11.8347 3.18347 11.9373 2.77805C12.0652 2.27274 12.5366 2.05143 12.9735 2.25563C13.264 2.39141 13.4292 2.69826 13.3762 3.00355C13.3179 3.33863 13.0258 3.59403 12.6612 3.62466C12.5754 3.63184 12.4887 3.6304 12.4024 3.62944C12.1581 3.62657 11.9301 3.68651 11.7201 3.80924C11.1144 4.16334 10.6463 4.6525 10.3093 5.26619C10.1544 5.5484 10.0833 5.85118 10.1233 6.17477C10.1524 6.4108 10.2767 6.56715 10.4553 6.59502C10.639 6.62361 10.8185 6.50446 10.9122 6.28973C10.9282 6.25289 10.9409 6.21377 10.9486 6.17441C10.9699 6.06507 10.9882 5.95513 11.0067 5.84531C11.0992 5.29778 11.5599 4.88638 12.1084 4.86197C12.6012 4.83996 13.0786 5.19609 13.2046 5.70296C13.321 6.17106 13.1777 6.56942 12.8075 6.87208C12.4511 7.16338 12.05 7.21482 11.6245 7.02927C11.5643 7.00307 11.5058 6.97161 11.4499 6.93716C11.2665 6.82399 11.0753 6.80653 10.866 6.85737C10.2205 7.01432 9.83843 6.70257 9.84381 6.03205L9.84369 6.03193Z" fill="white"/>
<path d="M10.733 9.44872C11.0644 9.45052 11.3178 9.54395 11.5519 9.69623C11.6283 9.746 11.708 9.79254 11.7777 9.85067C12.1251 10.1402 12.5039 10.2053 12.9437 10.0835C13.4469 9.94422 13.9085 10.1953 14.0781 10.6543C14.2502 11.1208 14.0351 11.6313 13.5862 11.822C13.1377 12.0125 12.6198 11.8193 12.399 11.3746C12.3542 11.2845 12.322 11.1873 12.2914 11.0911C12.1205 10.5529 11.7709 10.1585 11.3002 9.86431C11.0656 9.71777 10.8097 9.67542 10.5411 9.75306C10.2786 9.82902 10.1137 9.99674 10.0785 10.2755C10.0697 10.3458 10.0647 10.417 10.0637 10.4878C10.0505 11.4369 10.0401 12.3861 10.0226 13.3352C10.0212 13.4083 9.95604 13.5456 9.94503 13.5432C9.82253 13.516 9.87457 13.4077 9.87385 13.3319C9.86404 12.3471 9.86943 11.3622 9.84861 10.3778C9.83461 9.71825 10.3416 9.437 10.7329 9.44884L10.733 9.44872Z" fill="white"/>
<path d="M7.10482 11.81C7.10482 12.3278 7.10482 12.8456 7.10482 13.3634C7.10482 13.3938 7.11403 13.4299 7.10111 13.4535C7.08173 13.4886 7.04632 13.5151 7.01785 13.5451C6.99572 13.5117 6.95529 13.4788 6.95433 13.4447C6.94488 13.1251 6.94117 12.8053 6.93758 12.4854C6.92993 11.8104 6.92693 11.1351 6.91521 10.4601C6.90636 9.94836 6.63648 9.6859 6.12722 9.72801C5.94467 9.74308 5.7492 9.81964 5.59535 9.92204C5.14926 10.2187 4.82519 10.6179 4.66465 11.1421C4.52325 11.6039 4.21724 11.8664 3.82594 11.8892C3.34216 11.9174 2.91868 11.577 2.86999 11.1206C2.81436 10.5991 3.14501 10.1286 3.63417 10.0628C3.79029 10.0418 3.96267 10.0514 4.11292 10.096C4.51559 10.2159 4.86012 10.126 5.18024 9.87264C5.42034 9.68267 5.67802 9.52428 5.98654 9.46626C6.60466 9.3501 7.17337 9.74715 7.1364 10.4093C7.11044 10.8749 7.13138 11.343 7.13138 11.81C7.12253 11.81 7.11379 11.81 7.10494 11.81H7.10482Z" fill="white"/>
<path d="M13.9548 5.5542C13.955 4.98752 14.4193 4.523 14.9798 4.52886C15.5437 4.53473 16.0025 4.99123 16 5.54403C15.9975 6.10831 15.5362 6.56768 14.9717 6.5684C14.4129 6.56912 13.9547 6.11214 13.9548 5.5542Z" fill="white"/>
<path d="M2.01475 4.53505C2.5764 4.53852 3.03613 4.99598 3.03494 5.55034C3.03374 6.10673 2.55535 6.57938 2.00051 6.57244C1.46278 6.56562 0.993723 6.08519 1.00006 5.54794C1.00688 4.97313 1.44927 4.53159 2.01475 4.53505Z" fill="white"/>
</svg>
