<svg xmlns="http://www.w3.org/2000/svg" fill="none" viewBox="0 0 915 137">
    <path fill="#fff" d="M23.372 24.779c-3.594-5.955.703-13.544 7.667-13.544h53.415a8.957 8.957 0 0 1 6.993 3.358l27.637 34.534c4.682 5.85.509 14.51-6.994 14.51H51.88a8.954 8.954 0 0 1-7.667-4.324L23.372 24.779ZM19.075 89.4a8.953 8.953 0 0 1 7.936-4.802h67.921c6.721 0 11.044 7.118 7.936 13.066L84.82 132.198A8.953 8.953 0 0 1 76.884 137H8.963c-6.721 0-11.045-7.118-7.936-13.066L19.075 89.4Zm224.775 25.985h11.479v18.694h-15.708c-20.139 0-35.646-9.85-35.646-30.957V44.224h-21.347V25.73h21.347V0h25.174v25.73h25.777v18.494h-25.777v57.692c0 10.453 5.437 13.469 14.701 13.469Zm64.917-92.067c33.43 0 47.528 19.499 47.528 41.61v69.151h-24.973V112.57c-6.847 14.273-16.111 23.921-36.854 23.921-20.542 0-37.056-14.674-37.056-35.178 0-25.127 24.369-30.555 44.91-32.565l28.799-3.015v-1.81c0-12.663-7.25-22.915-22.354-22.915-13.493 0-20.945 8.04-22.355 17.086h-25.375c2.618-21.308 21.146-34.776 47.73-34.776Zm-4.632 97.293c17.923 0 26.986-14.473 26.986-32.565v-6.433l-19.535 2.01c-13.694 1.609-28.597 3.619-28.597 17.69 0 12.262 9.667 19.298 21.146 19.298Zm115.725 15.88c-33.431 0-54.577-23.117-54.577-56.687 0-33.369 21.146-56.486 54.577-56.486 33.632 0 54.778 23.117 54.778 56.486 0 33.57-21.146 56.687-54.778 56.687Zm0-17.689c18.729 0 29-15.077 29-38.998 0-23.72-10.271-38.796-29-38.796-18.528 0-29 15.076-29 38.796 0 23.921 10.472 38.998 29 38.998Zm105.542 17.689c-25.375 0-44.91-11.659-48.132-34.575h25.375c2.618 13.066 13.091 16.886 23.361 16.886 15.306 0 23.362-5.428 23.362-13.87 0-8.242-5.035-12.263-20.744-15.479l-17.118-3.82c-19.736-4.22-31.819-13.266-31.819-29.75 0-19.9 20.139-32.565 44.91-32.565 22.958 0 42.292 10.051 46.924 30.153h-25.376c-2.819-8.04-11.68-12.463-21.347-12.463-10.875 0-20.743 4.623-20.743 12.865 0 7.438 6.646 10.05 19.736 12.865l17.118 3.618c22.757 4.825 32.625 14.876 32.625 32.163 0 21.509-20.34 33.972-48.132 33.972Zm105.738-21.106h11.479v18.694h-15.708c-20.139 0-35.646-9.85-35.646-30.957V44.224h-21.348V25.73h21.348V0h25.173v25.73h25.778v18.494h-25.778v57.692c0 10.453 5.438 13.469 14.702 13.469Zm64.916-92.067c33.431 0 47.528 19.499 47.528 41.61v69.151h-24.972V112.57c-6.847 14.273-16.111 23.921-36.854 23.921-20.542 0-37.056-14.674-37.056-35.178 0-25.127 24.368-30.555 44.91-32.565l28.799-3.015v-1.81c0-12.663-7.25-22.915-22.355-22.915-13.493 0-20.944 8.04-22.354 17.086h-25.375c2.618-21.308 21.146-34.776 47.729-34.776Zm-4.632 97.293c17.924 0 26.987-14.473 26.987-32.565v-6.433l-19.535 2.01c-13.695 1.609-28.597 3.619-28.597 17.69 0 12.262 9.666 19.298 21.145 19.298Zm115.562-5.226h11.479v18.694h-15.708c-20.139 0-35.646-9.85-35.646-30.957V44.224h-21.348V25.73h21.348V0h25.173v25.73h25.778v18.494h-25.778v57.692c0 10.453 5.438 13.469 14.702 13.469Zm59.882 21.106c-25.375 0-44.91-11.659-48.132-34.575h25.375c2.618 13.066 13.09 16.886 23.361 16.886 15.306 0 23.361-5.428 23.361-13.87 0-8.242-5.035-12.263-20.743-15.479l-17.118-3.82c-19.736-4.22-31.82-13.266-31.82-29.75 0-19.9 20.139-32.565 44.91-32.565 22.959 0 42.292 10.051 46.924 30.153h-25.375c-2.819-8.04-11.681-12.463-21.347-12.463-10.875 0-20.743 4.623-20.743 12.865 0 7.438 6.645 10.05 19.736 12.865l17.118 3.618C905.132 75.181 915 85.232 915 102.52c0 21.509-20.34 33.972-48.132 33.972Z"/>
</svg>
